<svg width="21" height="16" viewBox="0 0 21 16" fill="none" xmlns="http://www.w3.org/2000/svg">
<path d="M9.60806 7.89768C10.1303 8.24584 11.0466 8.24588 11.569 7.89764L11.5692 7.89748L20.4703 1.96341C20.1783 1.11903 19.3758 0.510742 18.4335 0.510742H2.74339C1.801 0.510742 0.998537 1.11903 0.706543 1.96341L9.60779 7.89752L9.60806 7.89768Z" fill="#4257BE"/>
<path d="M12.2192 8.87247L12.2189 8.87266C11.7618 9.17739 11.175 9.32977 10.5884 9.32977C10.0017 9.32977 9.41509 9.17743 8.95794 8.87262L8.95774 8.8725L0.588379 3.29297V13.3349C0.588379 14.5231 1.55507 15.4897 2.74332 15.4897H18.4335C19.6217 15.4897 20.5884 14.5231 20.5884 13.3349V3.29297L12.2192 8.87247Z" fill="#4257BE"/>
</svg>
