<svg width="20" height="20" viewBox="0 0 20 20" fill="none" xmlns="http://www.w3.org/2000/svg">
<g clip-path="url(#clip0_55_624)">
<path fill-rule="evenodd" clip-rule="evenodd" d="M19.6342 17.5919C19.5014 17.7243 19.3413 17.8936 19.1715 18.0727C18.7477 18.5224 18.2183 19.0814 17.8865 19.3082C16.1408 20.5011 13.8054 19.9303 12.1534 19.242C9.97412 18.3339 7.6015 16.6603 5.47115 14.5296C3.3388 12.3989 1.66529 10.0255 0.757281 7.8475C0.0697806 6.19516 -0.502212 3.85922 0.690874 2.11312C0.917437 1.78109 1.47779 1.25254 1.92693 0.827969C2.10662 0.658672 2.27459 0.498711 2.4074 0.366328C2.64319 0.131709 2.96229 0 3.29492 0C3.62755 0 3.94665 0.131709 4.18244 0.366328L7.39447 3.57742C7.62896 3.8132 7.76059 4.13221 7.76059 4.46475C7.76059 4.79728 7.62896 5.11629 7.39447 5.35207L6.51947 6.22531C6.22725 6.51539 6.03651 6.89208 5.97563 7.29931C5.91476 7.70653 5.987 8.12253 6.18162 8.48539C7.38512 10.7569 9.24312 12.6146 11.5148 13.8177C11.8776 14.0122 12.2935 14.0844 12.7006 14.0234C13.1077 13.9624 13.4843 13.7716 13.7741 13.4793L14.647 12.606C14.8828 12.3714 15.2019 12.2397 15.5345 12.2397C15.8671 12.2397 16.1862 12.3714 16.422 12.606L19.6342 15.8177C19.8687 16.0534 20.0004 16.3723 20.0004 16.7048C20.0004 17.0373 19.8687 17.3562 19.6342 17.5919Z" fill="#4257BE"/>
</g>
<defs>
<clipPath id="clip0_55_624">
<rect width="20" height="20" fill="white"/>
</clipPath>
</defs>
</svg>
