<svg width="20" height="20" viewBox="0 0 20 20" fill="none" xmlns="http://www.w3.org/2000/svg">
<path fill-rule="evenodd" clip-rule="evenodd" d="M10.0189 0.831543C8.02629 0.834041 6.11596 1.6265 4.70667 3.03519C3.29738 4.44389 2.50413 6.35389 2.50079 8.3465C2.50079 11.2221 4.31812 13.8426 6.0504 15.789C7.78268 17.7355 9.51497 19.0331 9.51497 19.0331C9.65944 19.1415 9.83516 19.2 10.0158 19.2C10.1963 19.2 10.3721 19.1415 10.5165 19.0331C10.5165 19.0331 12.2488 17.7355 13.9811 15.789C15.7134 13.8426 17.5307 11.2221 17.5307 8.3465C17.529 6.35392 16.7368 4.44343 15.3278 3.03447C13.9188 1.6255 12.0115 0.833211 10.0189 0.831543ZM10.0158 5.00792C10.9012 5.00792 11.7504 5.35966 12.3765 5.98577C13.0026 6.61188 13.3543 7.46106 13.3543 8.3465C13.3543 9.23195 13.0026 10.0811 12.3765 10.7072C11.7504 11.3333 10.9012 11.6851 10.0158 11.6851C9.13031 11.6851 8.28113 11.3333 7.65502 10.7072C7.02891 10.0811 6.67717 9.23195 6.67717 8.3465C6.67717 7.46106 7.02891 6.61188 7.65502 5.98577C8.28113 5.35966 9.13031 5.00792 10.0158 5.00792Z" fill="#4257BE"/>
</svg>
