<svg width="1902" height="346" viewBox="0 0 1902 346" fill="none" xmlns="http://www.w3.org/2000/svg">
<path d="M1774.95 8.2644C1853.9 8.2644 1901.74 49.133 1901.74 116.009C1901.74 182.885 1853.9 224.218 1774.95 224.218H1713.65V338H1643.06V8.2644H1774.95ZM1713.65 164.773H1770.77C1807.93 164.773 1829.29 148.054 1829.29 116.009C1829.29 83.9642 1807.93 67.7097 1770.77 67.7097H1713.65V164.773Z" fill="#E6E6EF"/>
<path d="M1354.16 8.2644H1583.58V67.7097H1424.75V143.41H1578.01V201.926H1424.75V278.555H1587.3V338H1354.16V8.2644Z" fill="#E6E6EF"/>
<path d="M1027.16 338V8.2644H1097.75V142.481H1220.82V8.2644H1291.42V338H1220.82V201.926H1097.75V338H1027.16Z" fill="#E6E6EF"/>
<path d="M819.666 345.431C719.352 345.431 659.443 279.484 659.443 173.597C659.443 66.7808 719.352 0.83374 819.666 0.83374C919.98 0.83374 980.354 66.7808 980.354 173.597C980.354 279.484 919.98 345.431 819.666 345.431ZM732.356 173.597C732.356 244.188 764.865 285.985 819.666 285.985C875.396 285.985 907.441 244.188 907.441 173.597C907.441 102.541 875.396 60.279 819.666 60.279C764.865 60.279 732.356 102.541 732.356 173.597Z" fill="#E6E6EF"/>
<path d="M606.013 8.2644V338H535.422V119.724L407.707 338H327.363V8.2644H397.954V233.971L528.455 8.2644H606.013Z" fill="#E6E6EF"/>
<path d="M264.62 8.2644V338H194.028V67.7097H70.9581V338H0.36681V8.2644H264.62Z" fill="#E6E6EF"/>
</svg>
