<svg width="20" height="20" viewBox="0 0 20 20" fill="none" xmlns="http://www.w3.org/2000/svg">
<path fill-rule="evenodd" clip-rule="evenodd" d="M10.0003 1.66699C8.35215 1.66699 6.74099 2.15573 5.37058 3.07141C4.00017 3.98709 2.93206 5.28858 2.30133 6.8113C1.6706 8.33401 1.50558 10.0096 1.82712 11.6261C2.14866 13.2426 2.94234 14.7274 4.10777 15.8929C5.27321 17.0583 6.75807 17.852 8.37458 18.1735C9.99109 18.4951 11.6666 18.3301 13.1894 17.6993C14.7121 17.0686 16.0136 16.0005 16.9292 14.6301C17.8449 13.2597 18.3337 11.6485 18.3337 10.0003C18.3337 8.90598 18.1181 7.82234 17.6993 6.8113C17.2805 5.80025 16.6667 4.88159 15.8929 4.10777C15.1191 3.33395 14.2004 2.72012 13.1894 2.30133C12.1783 1.88254 11.0947 1.66699 10.0003 1.66699ZM12.942 12.942C12.8841 13.0001 12.8153 13.0463 12.7395 13.0778C12.6637 13.1093 12.5824 13.1255 12.5003 13.1255C12.4183 13.1255 12.337 13.1093 12.2612 13.0778C12.1854 13.0463 12.1166 13.0001 12.0587 12.942L9.55866 10.442C9.5005 10.3841 9.45436 10.3153 9.42289 10.2395C9.39143 10.1637 9.37527 10.0824 9.37533 10.0003V5.83366C9.37533 5.6679 9.44118 5.50893 9.55839 5.39172C9.6756 5.27451 9.83457 5.20866 10.0003 5.20866C10.1661 5.20866 10.3251 5.27451 10.4423 5.39172C10.5595 5.50893 10.6253 5.6679 10.6253 5.83366V9.74116L12.942 12.0587C13 12.1166 13.0461 12.1855 13.0775 12.2613C13.109 12.337 13.1251 12.4183 13.1251 12.5003C13.1251 12.5824 13.109 12.6636 13.0775 12.7394C13.0461 12.8152 13 12.884 12.942 12.942Z" fill="#4257BE"/>
</svg>
