<svg width="23" height="23" viewBox="0 0 23 23" fill="none" xmlns="http://www.w3.org/2000/svg">
<g clip-path="url(#clip0_14_1869)">
<path d="M11.2528 0H11.2472C5.04422 0 0 5.04562 0 11.25C0 13.7109 0.793125 15.9919 2.14172 17.8439L0.739688 22.0233L5.06391 20.6409C6.84281 21.8194 8.96484 22.5 11.2528 22.5C17.4558 22.5 22.5 17.453 22.5 11.25C22.5 5.04703 17.4558 0 11.2528 0ZM17.7989 15.8864C17.5275 16.6528 16.4503 17.2884 15.5911 17.4741C15.0033 17.5992 14.2355 17.6991 11.6508 16.6275C8.34469 15.2578 6.21563 11.8983 6.04969 11.6803C5.89078 11.4623 4.71375 9.90141 4.71375 8.28703C4.71375 6.67266 5.53359 5.88656 5.86406 5.54906C6.13547 5.27203 6.58406 5.14547 7.01437 5.14547C7.15359 5.14547 7.27875 5.1525 7.39125 5.15812C7.72172 5.17219 7.88766 5.19188 8.10563 5.71359C8.37703 6.3675 9.03797 7.98188 9.11672 8.14781C9.19687 8.31375 9.27703 8.53875 9.16453 8.75672C9.05906 8.98172 8.96625 9.08156 8.80031 9.27281C8.63437 9.46406 8.47687 9.61031 8.31094 9.81563C8.15906 9.99422 7.9875 10.1855 8.17875 10.5159C8.37 10.8394 9.03094 11.918 10.0041 12.7842C11.2598 13.9022 12.278 14.2594 12.6422 14.4113C12.9136 14.5238 13.237 14.497 13.4353 14.2861C13.687 14.0147 13.9978 13.5647 14.3142 13.1217C14.5392 12.8039 14.8233 12.7645 15.1214 12.877C15.4252 12.9825 17.0325 13.777 17.363 13.9416C17.6934 14.1075 17.9114 14.1863 17.9916 14.3255C18.0703 14.4647 18.0703 15.1186 17.7989 15.8864Z" fill="white"/>
</g>
<defs>
<clipPath id="clip0_14_1869">
<rect width="22.5" height="22.5" fill="white"/>
</clipPath>
</defs>
</svg>
